<svg width="1359" height="250" viewBox="0 0 1359 250" fill="none" xmlns="http://www.w3.org/2000/svg">
<path fill-rule="evenodd" clip-rule="evenodd" d="M13.2222 13.8889C6.96299 13.8889 1.88889 18.963 1.88889 25.2222C1.88889 25.8658 1.94253 26.4969 2.04559 27.1111C1.94253 27.7254 1.88889 28.3565 1.88889 29V161.222C1.88889 167.481 6.963 172.556 13.2222 172.556C19.4814 172.556 24.5556 167.481 24.5556 161.222V52.525L153.398 184.258C155.51 186.418 158.398 187.645 161.419 187.666C164.441 187.688 167.345 186.502 169.489 184.372L300.333 54.3507V227.333H11.3333C5.07411 227.333 0 232.407 0 238.667C0 244.926 5.07411 250 11.3333 250H311.667C317.926 250 323 244.926 323 238.667V27.1111C323 20.8519 317.926 15.7778 311.667 15.7778C308.541 15.7778 305.71 17.0433 303.66 19.09L161.615 160.242L40.6423 36.5556L145.444 36.5556C151.704 36.5556 156.778 31.4815 156.778 25.2223C156.778 18.963 151.704 13.8889 145.444 13.8889L13.2222 13.8889Z" fill="#D93025"/>
<path d="M402 246.858V17.0557H498.844C515.496 17.0557 530.067 20.1601 542.556 26.3689C555.045 32.5778 564.758 41.517 571.697 53.1867C578.635 64.8564 582.104 78.845 582.104 95.1526C582.104 111.61 578.525 125.486 571.368 136.782C564.283 148.077 554.314 156.605 541.46 162.365C528.679 168.125 513.743 171.005 496.653 171.005H438.81V122.531H484.383C491.541 122.531 497.639 121.634 502.679 119.838C507.791 117.968 511.698 115.013 514.401 110.974C517.176 106.934 518.564 101.661 518.564 95.1526C518.564 88.5697 517.176 83.2211 514.401 79.1068C511.698 74.9177 507.791 71.8507 502.679 69.9057C497.639 67.886 491.541 66.8761 484.383 66.8761H462.911V246.858H402ZM533.463 141.382L589.554 246.858H523.384L468.608 141.382H533.463Z" fill="#03012C" fill-opacity="0.78"/>
<path d="M672.79 250C654.823 250 639.34 246.484 626.34 239.452C613.412 232.346 603.443 222.172 596.432 208.932C589.494 195.616 586.024 179.683 586.024 161.131C586.024 143.327 589.53 127.768 596.541 114.452C603.553 101.137 613.449 90.7765 626.23 83.3707C639.011 75.965 654.093 72.2621 671.475 72.2621C684.183 72.2621 695.686 74.2819 705.984 78.3214C716.282 82.3608 725.083 88.2331 732.386 95.9381C739.69 103.568 745.313 112.844 749.257 123.766C753.201 134.687 755.173 146.993 755.173 160.682V175.045H604.867V140.934H699.521C699.448 135.996 698.206 131.658 695.796 127.917C693.459 124.102 690.282 121.148 686.265 119.053C682.321 116.884 677.829 115.799 672.79 115.799C667.896 115.799 663.405 116.884 659.315 119.053C655.225 121.148 651.938 124.065 649.455 127.805C647.045 131.545 645.767 135.922 645.621 140.934V177.738C645.621 183.273 646.753 188.211 649.017 192.549C651.281 196.888 654.531 200.292 658.767 202.76C663.003 205.229 668.116 206.463 674.104 206.463C678.267 206.463 682.065 205.865 685.498 204.668C689.004 203.471 691.998 201.75 694.481 199.506C696.964 197.187 698.79 194.419 699.959 191.203H755.173C753.274 203.172 748.783 213.57 741.698 222.397C734.614 231.149 725.229 237.956 713.543 242.819C701.931 247.606 688.346 250 672.79 250Z" fill="#03012C" fill-opacity="0.78"/>
<path d="M768.875 246.858V74.5063H826.28V107.271H828.033C831.539 96.4991 837.528 87.9713 846 81.6876C854.472 75.4039 864.551 72.2621 876.236 72.2621C888.068 72.2621 898.256 75.4787 906.801 81.912C915.346 88.2705 920.495 96.7235 922.248 107.271H924.001C926.849 96.7235 932.911 88.2705 942.187 81.912C951.462 75.4787 962.344 72.2621 974.833 72.2621C990.974 72.2621 1004.05 77.5733 1014.05 88.1957C1024.13 98.8181 1029.17 112.956 1029.17 130.61V246.858H968.698V146.32C968.698 138.764 966.836 132.855 963.111 128.591C959.386 124.252 954.384 122.083 948.103 122.083C941.895 122.083 936.965 124.252 933.313 128.591C929.734 132.855 927.945 138.764 927.945 146.32V246.858H870.101V146.32C870.101 138.764 868.239 132.855 864.514 128.591C860.789 124.252 855.787 122.083 849.506 122.083C845.343 122.083 841.764 123.055 838.769 125C835.775 126.945 833.438 129.75 831.758 133.416C830.151 137.006 829.348 141.308 829.348 146.32V246.858H768.875Z" fill="#03012C" fill-opacity="0.78"/>
<path d="M1096.01 249.551C1085.27 249.551 1075.78 247.756 1067.52 244.165C1059.34 240.5 1052.92 234.964 1048.24 227.558C1043.57 220.153 1041.23 210.727 1041.23 199.282C1041.23 189.856 1042.8 181.815 1045.94 175.157C1049.08 168.425 1053.47 162.926 1059.09 158.662C1064.71 154.399 1071.25 151.145 1078.7 148.9C1086.22 146.656 1094.33 145.197 1103.02 144.524C1112.44 143.776 1120 142.879 1125.7 141.831C1131.47 140.709 1135.63 139.176 1138.19 137.231C1140.74 135.211 1142.02 132.555 1142.02 129.264V128.815C1142.02 124.327 1140.34 120.886 1136.98 118.492C1133.62 116.098 1129.31 114.901 1124.05 114.901C1118.28 114.901 1113.57 116.21 1109.92 118.829C1106.34 121.372 1104.19 125.299 1103.46 130.61H1047.8C1048.54 120.138 1051.79 110.488 1057.56 101.661C1063.4 92.7588 1071.91 85.6523 1083.08 80.3411C1094.26 74.9551 1108.2 72.2621 1124.93 72.2621C1136.98 72.2621 1147.79 73.7208 1157.36 76.6382C1166.92 79.4808 1175.07 83.4829 1181.79 88.6445C1188.51 93.7313 1193.62 99.7157 1197.12 106.598C1200.7 113.405 1202.49 120.811 1202.49 128.815V246.858H1145.96V222.621H1144.65C1141.29 229.054 1137.2 234.253 1132.38 238.218C1127.63 242.183 1122.19 245.063 1116.06 246.858C1109.99 248.653 1103.31 249.551 1096.01 249.551ZM1115.73 210.503C1120.33 210.503 1124.64 209.53 1128.65 207.585C1132.74 205.64 1136.07 202.835 1138.62 199.17C1141.18 195.504 1142.46 191.053 1142.46 185.817V171.454C1140.85 172.127 1139.14 172.763 1137.31 173.362C1135.56 173.96 1133.66 174.521 1131.61 175.045C1129.64 175.569 1127.52 176.055 1125.26 176.504C1123.07 176.952 1120.77 177.364 1118.36 177.738C1113.68 178.486 1109.85 179.72 1106.85 181.441C1103.93 183.086 1101.74 185.144 1100.28 187.612C1098.89 190.006 1098.2 192.699 1098.2 195.691C1098.2 200.479 1099.84 204.144 1103.13 206.688C1106.42 209.231 1110.61 210.503 1115.73 210.503Z" fill="#03012C" fill-opacity="0.78"/>
<path d="M1219.31 246.858V74.5063H1279.79V246.858H1219.31ZM1249.55 56.553C1241.37 56.553 1234.36 53.7851 1228.52 48.2495C1222.67 42.7139 1219.75 36.0562 1219.75 28.2765C1219.75 20.4967 1222.67 13.839 1228.52 8.3034C1234.36 2.7678 1241.37 0 1249.55 0C1257.8 0 1264.82 2.7678 1270.59 8.3034C1276.43 13.839 1279.35 20.4967 1279.35 28.2765C1279.35 36.0562 1276.43 42.7139 1270.59 48.2495C1264.82 53.7851 1257.8 56.553 1249.55 56.553Z" fill="#03012C" fill-opacity="0.78"/>
<path d="M1359 17.0557V246.858H1298.53V17.0557H1359Z" fill="#03012C" fill-opacity="0.78"/>
</svg>
